<svg width="31" height="33" viewBox="0 0 31 33" fill="none" xmlns="http://www.w3.org/2000/svg">
<path fill-rule="evenodd" clip-rule="evenodd" d="M9 1C9 0.447715 8.55229 0 8 0C7.44772 0 7 0.447715 7 1V6H2C0.89543 6 0 6.89543 0 8V31C0 32.1046 0.89543 33 2 33H29C30.1046 33 31 32.1046 31 31V8C31 6.89543 30.1046 6 29 6H24V1C24 0.447715 23.5523 0 23 0C22.4477 0 22 0.447715 22 1V6H9V1ZM23 9C22.4477 9 22 8.55228 22 8H9C9 8.55228 8.55229 9 8 9C7.44772 9 7 8.55228 7 8H2V14H29V8H24C24 8.55228 23.5523 9 23 9ZM29 16H2V31H29V16Z" fill="#D90000"/>
</svg>
