<svg width="33" height="33" viewBox="0 0 33 33" fill="none" xmlns="http://www.w3.org/2000/svg">
<path fill-rule="evenodd" clip-rule="evenodd" d="M0 16.4274C0 7.39235 7.39235 0 16.4274 0C25.4625 0 32.8549 7.39235 32.8549 16.4274C32.8549 25.4625 25.4625 32.8549 16.4274 32.8549C7.39235 32.8549 0 25.4625 0 16.4274ZM2.24011 16.4274C2.24011 24.2678 8.58707 30.6148 16.4274 30.6148C24.2678 30.6148 30.6148 24.2678 30.6148 16.4274C30.6148 8.58707 24.2678 2.24011 16.4274 2.24011C8.58707 2.24011 2.24011 8.58707 2.24011 16.4274ZM17.1741 15.6808H23.8945C24.4918 15.6808 25.0145 16.2034 25.0145 16.8008C25.0145 17.3982 24.4918 17.9209 23.8945 17.9209H17.1741H16.4274H14.934V7.46704C14.934 6.86968 15.4567 6.34698 16.0541 6.34698C16.6515 6.34698 17.1741 6.86968 17.1741 7.46704V15.6808Z" fill="#D90000"/>
</svg>
