<svg width="402" height="42" viewBox="0 0 402 42" fill="none" xmlns="http://www.w3.org/2000/svg">
<path fill-rule="evenodd" clip-rule="evenodd" d="M21 0.5C9.67816 0.5 0.5 9.67816 0.5 21C0.5 32.3218 9.67816 41.5 21 41.5C32.3218 41.5 41.5 32.3218 41.5 21C41.5 9.67816 32.3218 0.5 21 0.5ZM1.5 21C1.5 10.2304 10.2304 1.5 21 1.5C31.7696 1.5 40.5 10.2304 40.5 21C40.5 31.7696 31.7696 40.5 21 40.5C10.2304 40.5 1.5 31.7696 1.5 21ZM22.9426 17.8306H26.01L25.6578 21.011H22.9426V30.008H18.9138V21.011H17V17.8306H18.9138V15.7747C18.9138 14.302 19.6672 12 22.9787 12L25.96 12.011V15.0964H23.795C23.4429 15.0964 22.9426 15.2604 22.9426 15.9618V17.8306ZM60.5 21C60.5 9.67816 69.6782 0.5 81 0.5C92.3218 0.5 101.5 9.67816 101.5 21C101.5 32.3218 92.3218 41.5 81 41.5C69.6782 41.5 60.5 32.3218 60.5 21ZM81 1.5C70.2304 1.5 61.5 10.2304 61.5 21C61.5 31.7696 70.2304 40.5 81 40.5C91.7696 40.5 100.5 31.7696 100.5 21C100.5 10.2304 91.7696 1.5 81 1.5ZM141 0.5C129.678 0.5 120.5 9.67816 120.5 21C120.5 32.3218 129.678 41.5 141 41.5C152.322 41.5 161.5 32.3218 161.5 21C161.5 9.67816 152.322 0.5 141 0.5ZM121.5 21C121.5 10.2304 130.23 1.5 141 1.5C151.77 1.5 160.5 10.2304 160.5 21C160.5 31.7696 151.77 40.5 141 40.5C130.23 40.5 121.5 31.7696 121.5 21ZM87.9084 17.1689C88.6244 16.7403 89.1742 16.0617 89.4332 15.2532C88.7631 15.6498 88.021 15.938 87.2315 16.0934C86.599 15.4203 85.6976 15 84.7007 15C82.7858 15 81.2334 16.5502 81.2334 18.4626C81.2334 18.7339 81.2639 18.9983 81.3231 19.2517C78.4416 19.1075 75.886 17.7288 74.1766 15.6337C73.8781 16.1452 73.7069 16.7399 73.7069 17.3745C73.7069 18.5758 74.3189 19.6355 75.2492 20.2567C74.6812 20.2387 74.1463 20.0833 73.6788 19.8239C73.6784 19.8382 73.6784 19.8525 73.6784 19.8672C73.6784 21.5451 74.8739 22.9445 76.4597 23.2626C76.1691 23.3419 75.8627 23.3843 75.5462 23.3843C75.323 23.3843 75.1061 23.3626 74.8939 23.3221C75.3351 24.6977 76.6161 25.699 78.133 25.7267C76.9462 26.6555 75.4514 27.2092 73.827 27.2092C73.5472 27.2092 73.2713 27.1927 73 27.1602C74.5342 28.143 76.3563 28.7165 78.315 28.7165C84.6924 28.7165 88.1801 23.4397 88.1801 18.8637C88.1801 18.714 88.1768 18.5644 88.17 18.4156C88.8472 17.928 89.4349 17.3182 89.9 16.6234C89.2778 16.899 88.6099 17.085 87.9084 17.1689ZM144.432 16.2415C144.432 15.6426 144.917 15.1582 145.515 15.1582C146.113 15.1582 146.598 15.6426 146.598 16.2415C146.598 16.8395 146.113 17.3247 145.515 17.3247C144.917 17.3247 144.432 16.8395 144.432 16.2415ZM138.023 20.9993C138.023 22.6422 139.359 23.9783 141 23.9783C142.642 23.9783 143.978 22.6422 143.978 20.9993C143.978 19.3572 142.642 18.022 141 18.022C139.359 18.022 138.023 19.3572 138.023 20.9993ZM136.348 20.999C136.348 18.4332 138.435 16.3452 141 16.3452C143.566 16.3452 145.653 18.4332 145.653 20.999C145.653 23.5656 143.566 25.6535 141 25.6535C138.435 25.6535 136.348 23.5656 136.348 20.999ZM148.169 25.2668C148.274 24.7006 148.296 24.1026 148.305 23.5421C148.327 21.9737 148.331 20.3619 148.316 18.7525V18.6863L148.316 18.6806C148.309 17.9144 148.302 17.189 148.128 16.5091C147.933 15.7482 147.595 15.1411 147.124 14.7034C146.654 14.269 146.023 13.9744 145.249 13.8288C144.957 13.7746 144.642 13.7556 144.308 13.7354L144.295 13.7347C144.125 13.7249 143.949 13.7142 143.77 13.6987C143.707 13.693 143.652 13.6848 143.609 13.6758H138.344L138.222 13.6856L138.196 13.6877C138.081 13.6969 137.962 13.7065 137.838 13.7118C137.229 13.7371 136.52 13.7993 135.88 14.0767C134.826 14.5324 134.171 15.3211 133.878 16.4878C133.745 17.0164 133.72 17.5695 133.702 18.1855C133.699 18.2714 133.686 18.3459 133.676 18.3991V23.6607L133.685 23.7835C133.696 23.9062 133.706 24.033 133.712 24.1672C133.737 24.7882 133.802 25.5106 134.092 26.1643C134.55 27.1928 135.329 27.8342 136.475 28.1255C137.06 28.2744 137.667 28.2981 138.185 28.3022L138.887 28.3071C139.935 28.3153 141.016 28.3227 142.078 28.3227C142.5 28.3227 142.891 28.3219 143.271 28.3194H143.279C144.061 28.3145 144.801 28.3088 145.496 28.1312C147.008 27.7442 147.882 26.8074 148.169 25.2668ZM149.991 18.6714L149.992 18.7376C150.006 20.3601 150.001 21.9841 149.979 23.5657C149.97 24.1703 149.944 24.8813 149.816 25.5735C149.409 27.7588 148.058 29.2045 145.911 29.7543C145.019 29.9832 144.141 29.9891 143.292 29.9948L143.29 29.9949H143.282C142.898 29.9973 142.505 29.9989 142.078 29.9989C141.154 29.9989 140.217 29.9922 139.301 29.9856L138.875 29.9826L138.171 29.9777C137.591 29.9728 136.826 29.9433 136.062 29.7486C134.41 29.3297 133.232 28.352 132.562 26.8449C132.155 25.9277 132.067 24.9688 132.038 24.2349C132.034 24.1359 132.025 24.032 132.016 23.9216C132.011 23.8659 132.007 23.8103 132.002 23.7538L132 23.7236V18.2402L132.013 18.1674L132.014 18.1651L132.02 18.1341L132.026 18.1054L132.029 18.0929C132.049 17.4187 132.083 16.756 132.254 16.0786C132.676 14.3972 133.672 13.206 135.215 12.5384C136.112 12.1505 137.051 12.0671 137.77 12.0376C137.857 12.034 137.95 12.0264 138.048 12.0185L138.048 12.0185L138.084 12.0155C138.135 12.0109 138.188 12.007 138.241 12.0032L138.241 12.0032L138.251 12.0025L138.281 12H143.764L143.836 12.0131L143.85 12.0157L143.871 12.0197C143.882 12.0218 143.893 12.0238 143.904 12.0254L143.927 12.0303C144.079 12.0434 144.232 12.0532 144.394 12.0622C144.77 12.0843 145.158 12.1072 145.557 12.1825C147.751 12.5932 149.202 13.9456 149.751 16.0933C149.975 16.972 149.983 17.836 149.991 18.6714ZM180.5 21C180.5 9.67816 189.678 0.5 201 0.5C212.322 0.5 221.5 9.67816 221.5 21C221.5 32.3218 212.322 41.5 201 41.5C189.678 41.5 180.5 32.3218 180.5 21ZM201 1.5C190.23 1.5 181.5 10.2304 181.5 21C181.5 31.7696 190.23 40.5 201 40.5C211.77 40.5 220.5 31.7696 220.5 21C220.5 10.2304 211.77 1.5 201 1.5ZM321 0.5C309.678 0.5 300.5 9.67816 300.5 21C300.5 32.3218 309.678 41.5 321 41.5C332.322 41.5 341.5 32.3218 341.5 21C341.5 9.67816 332.322 0.5 321 0.5ZM301.5 21C301.5 10.2304 310.23 1.5 321 1.5C331.77 1.5 340.5 10.2304 340.5 21C340.5 31.7696 331.77 40.5 321 40.5C310.23 40.5 301.5 31.7696 301.5 21ZM240.5 21C240.5 9.67816 249.678 0.5 261 0.5C272.322 0.5 281.5 9.67816 281.5 21C281.5 32.3218 272.322 41.5 261 41.5C249.678 41.5 240.5 32.3218 240.5 21ZM261 1.5C250.23 1.5 241.5 10.2304 241.5 21C241.5 31.7696 250.23 40.5 261 40.5C271.77 40.5 280.5 31.7696 280.5 21C280.5 10.2304 271.77 1.5 261 1.5ZM381 0.5C369.678 0.5 360.5 9.67816 360.5 21C360.5 32.3218 369.678 41.5 381 41.5C392.322 41.5 401.5 32.3218 401.5 21C401.5 9.67816 392.322 0.5 381 0.5ZM361.5 21C361.5 10.2304 370.23 1.5 381 1.5C391.77 1.5 400.5 10.2304 400.5 21C400.5 31.7696 391.77 40.5 381 40.5C370.23 40.5 361.5 31.7696 361.5 21ZM385.997 25.9251V25.8105C385.935 25.8481 385.892 25.8746 385.849 25.902C385.257 26.2638 384.622 26.5204 383.92 26.5879C383.343 26.6461 382.789 26.5811 382.284 26.2706C381.941 26.0585 381.73 25.7583 381.685 25.3606C381.648 25.0253 381.615 24.6943 381.612 24.359C381.605 23.3736 381.605 22.3885 381.604 21.4036C381.604 20.8575 381.604 20.3114 381.603 19.7653C381.603 19.732 381.608 19.7026 381.615 19.6639L381.617 19.6575H385.452V17.1045H381.598V13H379.301C379.295 13.0388 379.289 13.0771 379.283 13.115L379.272 13.1899C379.263 13.2549 379.253 13.3189 379.242 13.3823C379.224 13.4899 379.202 13.595 379.18 13.7002L379.169 13.7561C378.802 15.5051 377.8 16.7102 376.098 17.3089C376.019 17.338 376 17.3774 376 17.4569C376.003 18.1471 376.003 18.8373 376.003 19.5258C376.003 19.5425 376.003 19.5589 376.004 19.5759L376.006 19.6157L376.009 19.6593H377.784V19.844L377.784 20.6917L377.784 21.6523C377.783 22.8574 377.783 24.0621 377.784 25.2657C377.784 25.5744 377.803 25.8823 377.823 26.1911C377.877 26.8548 378.113 27.4372 378.592 27.9136C378.86 28.1847 379.155 28.4148 379.485 28.5996C380.243 29.0272 381.068 29.1957 381.928 29.2367C383.325 29.306 384.643 29.0092 385.9 28.4063C385.977 28.3695 386 28.3284 386 28.2472C385.995 27.6658 385.996 27.084 385.996 26.5038V26.5033C385.996 26.3103 385.997 26.1176 385.997 25.9251ZM319.18 17C322.511 17 326.016 17.6833 328.578 19.1821C328.921 19.3772 329.161 19.6703 329.161 20.2089C329.161 20.8256 328.664 21.2681 328.092 21.2681C327.861 21.2681 327.723 21.2119 327.506 21.092C325.453 19.8673 322.266 19.1907 319.185 19.1907C317.645 19.1907 316.083 19.3458 314.653 19.7331C314.627 19.7397 314.6 19.7473 314.573 19.7553C314.557 19.7597 314.542 19.7643 314.526 19.769C314.387 19.8102 314.229 19.8568 314.069 19.8568C313.464 19.8568 313 19.381 313 18.7767C313 18.1629 313.383 17.8165 313.795 17.6966C315.412 17.2217 317.216 17 319.18 17ZM319.104 24.5767C321.587 24.5767 323.799 25.1457 325.704 26.282C325.987 26.4476 326.152 26.617 326.152 27.0357C326.152 27.442 325.82 27.7418 325.447 27.7418C325.264 27.7418 325.139 27.678 324.966 27.5733C323.322 26.5817 321.272 26.0612 319.096 26.0612C317.882 26.0612 316.66 26.2163 315.518 26.4523C315.465 26.464 315.407 26.4783 315.35 26.4927C315.206 26.5287 315.058 26.5656 314.958 26.5656C314.53 26.5656 314.24 26.2239 314.24 25.8537C314.24 25.3798 314.515 25.1419 314.857 25.0782C316.258 24.7594 317.655 24.5767 319.104 24.5767ZM318.949 20.8857C321.919 20.8857 324.79 21.6233 327.05 22.9689C327.428 23.1858 327.567 23.4618 327.567 23.8634C327.567 24.3535 327.177 24.7484 326.683 24.7484C326.451 24.7484 326.301 24.6605 326.144 24.5683L326.115 24.5514C324.27 23.4618 321.711 22.7367 318.91 22.7367C317.475 22.7367 316.235 22.9365 315.208 23.2087C315.144 23.2261 315.087 23.2441 315.035 23.2609C314.907 23.3017 314.802 23.3352 314.656 23.3352C314.168 23.3352 313.77 22.9375 313.77 22.4474C313.77 21.9677 314.003 21.6366 314.474 21.5043C315.75 21.1551 317.053 20.8857 318.949 20.8857ZM270.059 20.2601V18.29H268.266V20.2601H266.325V22.0799H268.266V24.0491H270.059V22.0799H272V20.2601H270.059ZM264.095 20.2601H257.881V22.1316H262.288C262.07 24.7553 259.918 25.8769 257.887 25.8769C255.289 25.8769 253.021 23.8018 253.021 20.8912C253.021 18.0581 255.183 15.8771 257.893 15.8771C259.984 15.8771 261.216 17.2306 261.216 17.2306L262.508 15.8715C262.508 15.8715 260.85 14 257.827 14C253.979 14 251 17.2977 251 20.858C251 24.3497 253.802 27.7517 257.925 27.7517C261.553 27.7517 264.207 25.2297 264.207 21.5013C264.207 20.7142 264.095 20.2593 264.095 20.2593V20.2601ZM197.599 22.1594C197.531 22.4226 197.321 22.5152 197.089 22.4183C195.665 21.8294 195 20.2451 195 18.4646C195 15.5251 197.443 12 202.288 12C206.18 12 208.743 14.8581 208.743 17.9288C208.743 21.9888 206.519 25.0201 203.241 25.0201C202.14 25.0201 201.105 24.4174 200.751 23.7316C200.751 23.7316 200.158 26.1157 200.033 26.5769C199.614 28.1207 198.421 29.6669 198.216 29.932C198.206 29.946 198.197 29.9564 198.192 29.9631C198.122 30.0557 197.967 30.0265 197.95 29.9039C197.948 29.8922 197.946 29.8747 197.943 29.8518C197.887 29.4667 197.613 27.5508 197.981 25.9717C198.177 25.1307 199.292 20.3309 199.292 20.3309C199.292 20.3309 198.967 19.6699 198.967 18.6935C198.967 17.159 199.843 16.0146 200.933 16.0146C201.86 16.0146 202.308 16.7218 202.308 17.5688C202.308 18.1736 202.066 18.9698 201.811 19.808C201.667 20.2814 201.519 20.7681 201.408 21.2413C201.153 22.3386 201.951 23.2353 203.018 23.2353C204.949 23.2353 206.25 20.7166 206.25 17.7317C206.25 15.4633 204.746 13.7651 202.007 13.7651C198.916 13.7651 196.988 16.1071 196.988 18.7227C196.988 19.6236 197.249 20.2597 197.66 20.7535C197.85 20.979 197.876 21.069 197.808 21.3287C197.777 21.4427 197.726 21.6516 197.679 21.8401C197.647 21.9679 197.618 22.0863 197.599 22.1594Z" fill="#9A9A9A"/>
</svg>
